<?xml version="1.0" encoding="UTF-8" standalone="no"?>
<svg
   width="14"
   height="17.999975"
   viewBox="0 0 14 17.999975"
   fill="none"
   version="1.1"
   id="svg946"
   sodipodi:docname="position.svg"
   inkscape:version="1.1.1 (3bf5ae0d25, 2021-09-20)"
   xmlns:inkscape="http://www.inkscape.org/namespaces/inkscape"
   xmlns:sodipodi="http://sodipodi.sourceforge.net/DTD/sodipodi-0.dtd"
   xmlns="http://www.w3.org/2000/svg"
   xmlns:svg="http://www.w3.org/2000/svg">
  <defs
     id="defs950" />
  <sodipodi:namedview
     id="namedview948"
     pagecolor="#ffffff"
     bordercolor="#666666"
     borderopacity="1.0"
     inkscape:pageshadow="2"
     inkscape:pageopacity="0.0"
     inkscape:pagecheckerboard="0"
     showgrid="false"
     inkscape:zoom="15.823529"
     inkscape:cx="6.9516729"
     inkscape:cy="9.5111524"
     inkscape:window-width="1866"
     inkscape:window-height="1016"
     inkscape:window-x="54"
     inkscape:window-y="27"
     inkscape:window-maximized="1"
     inkscape:current-layer="svg946" />
  <path
     d="M 6.1359,17.5955 C 4.2328,15.3326 0,9.8481 0,6.7675 0,3.0299 3.134,0 7,0 c 3.8646,0 7,3.0299 7,6.7675 0,3.0806 -4.2656,8.5651 -6.1359,10.828 -0.4485,0.5393 -1.2797,0.5393 -1.7282,0 z M 7,9.0234 c 1.287,0 2.3333,-1.0117 2.3333,-2.2559 C 9.3333,5.5233 8.287,4.5117 7,4.5117 5.713,4.5117 4.6667,5.5233 4.6667,6.7675 4.6667,8.0117 5.713,9.0234 7,9.0234 Z"
     fill="#000000"
     id="path944" />
</svg>
